<svg xmlns="http://www.w3.org/2000/svg" width="16" height="16" viewBox="0 0 16 16">
  <g fill="none" fill-rule="evenodd">
    <polygon fill="#9AA7B0" fill-opacity=".8" points="7 1 3 5 7 5"/>
    <polygon fill="#9AA7B0" fill-opacity=".8" points="8 1 8 6 3 6 3 8 13 8 13 1"/>
    <polygon fill="#40B6E0" fill-opacity=".7" points="1 16 16 16 16 9 1 9"/>
    <path fill="#231F20" fill-opacity=".7" d="M3.15,3 L2.49612121,1.4 L1.85,3 L3.15,3 Z M2.109,0 L2.89,0 L5,5 L3.9,5 L3.4,4 L1.6,4 L1.1,5 L0,5 L2.109,0 Z" transform="translate(2 10)"/>
    <path fill="#231F20" fill-opacity=".7" d="M1,1 L1,4 L1.649,4 C2.578,4 3,3.493 3,2.515 L3,2.5 C3,1.522 2.578,1 1.649,1 L1,1 Z M0,0 L1.649,0 C3.04,0 4,1.093 4,2.5 C4,3.921 3.04,5 1.649,5 L0,5 L0,0 Z" transform="translate(11 10)"/>
    <path fill="#231F20" fill-opacity=".7" d="M1.77635684e-15,5 L1.77635684e-15,1.33226763e-14 L2.11570248,1.33226763e-14 C2.70413223,1.33226763e-14 3.16033058,0.178571429 3.46446281,0.507142857 C3.72231405,0.785714286 3.86115702,1.17857143 3.86115702,1.65 L3.86115702,1.66428571 C3.86115702,2.47142857 3.45785124,2.97857143 2.86942149,3.21428571 L4,5 L2.80991736,5 L1.81818182,3.4 L1.01818182,3.4 L1.01818182,5 L1.77635684e-15,5 Z M1.01818182,2.42857143 L2.04958678,2.42857143 C2.54545455,2.42857143 2.82975207,2.14285714 2.82975207,1.72142857 L2.82975207,1.70714286 C2.82975207,1.23571429 2.52561983,0.992857143 2.02975207,0.992857143 L1.01818182,0.992857143 L1.01818182,2.42857143 Z" transform="translate(7 10)"/>
  </g>
</svg>
