<svg version="1.0" xmlns="http://www.w3.org/2000/svg"
 width="16" height="16" viewBox="0 0 219.000000 230.000000"
 preserveAspectRatio="xMidYMid meet">

<g transform="translate(0.000000,230.000000) scale(0.100000,-0.100000)"
fill="#000000" stroke="none">
<path d="M281 2259 c-108 -72 -200 -193 -246 -326 -31 -87 -34 -208 -6 -268
35 -78 113 -125 207 -125 l41 0 5 -67 c11 -150 118 -252 263 -253 l60 0 1 -53
c3 -88 21 -137 73 -188 47 -47 104 -69 181 -69 29 0 30 -1 30 -51 0 -72 17
-122 58 -169 49 -59 122 -93 199 -94 l63 -1 0 -46 c0 -152 87 -248 223 -249
l57 0 0 -43 c0 -78 27 -145 80 -198 57 -57 92 -69 120 -44 33 30 26 69 -18 98
-49 32 -72 80 -72 150 l0 55 79 32 c44 17 115 54 158 82 107 70 269 234 311
317 80 159 8 245 -141 169 -176 -89 -375 -283 -449 -437 -29 -61 -37 -71 -66
-77 -53 -11 -103 2 -136 36 -28 27 -31 37 -34 105 l-4 75 58 26 c146 64 360
241 444 367 92 137 84 257 -18 257 -74 -1 -171 -60 -300 -184 -100 -96 -173
-193 -228 -300 l-41 -81 -57 -3 c-107 -6 -185 68 -186 173 0 22 4 45 8 52 4 7
40 26 80 42 269 111 538 408 492 545 -25 76 -111 67 -252 -27 -164 -109 -305
-260 -377 -405 l-31 -62 -51 0 c-85 0 -132 38 -145 119 -4 22 -4 55 0 73 5 30
15 38 84 72 103 51 190 114 286 205 166 160 233 302 176 374 -26 33 -58 40
-113 23 -148 -44 -403 -306 -487 -499 -24 -53 -27 -57 -67 -63 -50 -7 -88 0
-131 26 -51 31 -72 75 -72 148 0 56 2 65 21 69 39 11 179 82 242 124 100 68
238 214 281 299 44 89 47 139 11 175 -43 44 -108 29 -233 -54 -165 -111 -324
-284 -382 -415 -16 -36 -26 -45 -52 -50 -48 -8 -110 9 -135 39 -69 80 -17 276
111 413 33 35 79 75 103 89 51 29 64 64 38 93 -26 29 -45 25 -114 -21z m559
-231 c-35 -68 -211 -235 -303 -287 -43 -24 -80 -42 -82 -39 -11 10 70 110 153
189 84 80 239 195 249 185 2 -2 -5 -24 -17 -48z m330 -255 c0 -27 -74 -127
-144 -197 -74 -74 -233 -192 -244 -181 -10 10 94 149 167 223 97 97 221 184
221 155z m278 -365 c-32 -58 -160 -191 -232 -242 -64 -46 -145 -90 -152 -83
-8 8 56 94 113 151 97 98 252 215 286 216 5 0 -2 -19 -15 -42z m332 -253 c0
-36 -113 -179 -199 -252 -66 -57 -177 -133 -192 -133 -26 0 133 202 211 270
89 77 180 135 180 115z m290 -333 c0 -31 -124 -177 -203 -240 -56 -45 -183
-122 -201 -122 -4 0 12 28 36 61 53 77 179 195 276 260 72 48 92 57 92 41z"/>
</g>
</svg>
