<svg width="16" height="16" viewBox="0 0 16 16" fill="none" xmlns="http://www.w3.org/2000/svg">
<path d="M5 5C5 6.10457 4.10457 7 3 7C1.89543 7 1 6.10457 1 5C1 3.89543 1.89543 3 3 3C4.10457 3 5 3.89543 5 5Z" fill="#55A76A"/>
<path d="M10 13C10 14.1046 9.10457 15 8 15C6.89543 15 6 14.1046 6 13C6 11.8954 6.89543 11 8 11C9.10457 11 10 11.8954 10 13Z" fill="#55A76A"/>
<path d="M13 7C14.1046 7 15 6.10457 15 5C15 3.89543 14.1046 3 13 3C11.8954 3 11 3.89543 11 5C11 6.10457 11.8954 7 13 7Z" fill="#55A76A"/>
<path d="M5.64712 3.58709C5.48624 3.28632 5.2756 3.01616 5.0262 2.78762C5.90278 2.28644 6.91794 2 8 2C9.08206 2 10.0972 2.28644 10.9738 2.78762C10.7244 3.01616 10.5138 3.28632 10.3529 3.58709C9.65163 3.21242 8.85062 3 8 3C7.14938 3 6.34837 3.21241 5.64712 3.58709Z" fill="#6C707E"/>
<path d="M13 8C13 9.6967 12.1549 11.196 10.8626 12.0999C10.9519 12.3841 11 12.6864 11 13C11 13.0676 10.9978 13.1347 10.9934 13.2011C12.7904 12.1647 14 10.2236 14 8C14 7.94319 13.9992 7.88656 13.9976 7.83013C13.6855 7.94015 13.3498 8 13 8Z" fill="#6C707E"/>
<path d="M5.00664 13.2011C5.00224 13.1347 5 13.0676 5 13C5 12.6864 5.04811 12.3841 5.13736 12.0999C3.84511 11.196 3 9.6967 3 8C2.65025 8 2.31447 7.94015 2.00236 7.83013C2.00079 7.88656 2 7.94319 2 8C2 10.2236 3.20957 12.1647 5.00664 13.2011Z" fill="#6C707E"/>
</svg>
