<?xml version="1.0" encoding="UTF-8" standalone="no"?>
<svg
   width="16"
   height="16"
   viewBox="0 0 16 16"
   version="1.1"
   id="svg81"
   xmlns="http://www.w3.org/2000/svg">

  <path
     fill="#AFB1B3"
     d="M8,3 C4.81818182,3 2.10090909,5.07333333 1,8 C2.10090909,10.9266667 4.81818182,13 8,13 C11.1818182,13 13.8990909,10.9266667 15,8 C13.8990909,5.07333333 11.1818182,3 8,3 Z M8,11.5 C6.068,11.5 4.5,9.932 4.5,8 C4.5,6.068 6.068,4.5 8,4.5 C9.932,4.5 11.5,6.068 11.5,8 C11.5,9.932 9.932,11.5 8,11.5 Z M8,6 C6.89333333,6 6,6.89333333 6,8 C6,9.10666667 6.89333333,10 8,10 C9.10666667,10 10,9.10666667 10,8 C10,6.89333333 9.10666667,6 8,6 Z"
     id="path79" />
  <path
     fill="#AFB1B3"
     style="fill-opacity:1;stroke-width:0.0121221"
     d="M 13.317417,13.977475 C 12.91166,13.589112 11.827035,12.551022 10.907139,11.670607 8.3999822,9.271054 5.6269775,6.6169916 4.8283423,5.8525474 4.4382394,5.4791457 3.6117767,4.6881772 2.9917586,4.0948395 2.3717405,3.501502 1.6677467,2.8273248 1.427328,2.5966677 L 0.99020282,2.1772915 1.4354401,1.7117528 C 1.6803206,1.4557065 1.8857477,1.246214 1.8919446,1.246214 c 0.00621,0 0.3161831,0.2918368 0.688858,0.6485264 0.372675,0.3566895 1.1220835,1.074016 1.6653523,1.5940593 1.5827296,1.5150653 2.2969845,2.1985927 3.952004,3.7819881 0.8567311,0.8196545 1.7513439,1.676153 1.9880281,1.9033299 0.236685,0.227177 1.120388,1.0732163 1.963785,1.8800873 2.643308,2.528833 2.798215,2.677519 2.801659,2.689193 0.0033,0.01119 -0.872606,0.937191 -0.888388,0.939175 -0.0045,5.57e-4 -0.340069,-0.316736 -0.745826,-0.705098 z"
     id="path7220" />
</svg>
