<svg version="1.0" xmlns="http://www.w3.org/2000/svg"
 width="16" height="16" viewBox="0 0 920.000000 789.000000"
 preserveAspectRatio="xMidYMid meet">

<g transform="translate(0.000000,789.000000) scale(0.100000,-0.100000)"
fill="#000000" stroke="none">
<path d="M3658 7874 c-158 -38 -301 -170 -348 -321 -19 -63 -20 -92 -20 -978
0 -886 1 -915 20 -978 34 -110 136 -228 242 -283 91 -46 152 -54 446 -54 l272
0 0 -495 0 -495 -1360 0 c-942 0 -1375 -3 -1412 -11 -29 -6 -91 -29 -138 -51
-115 -55 -248 -186 -304 -298 -67 -136 -66 -126 -66 -732 l0 -548 -275 0
c-165 0 -295 -4 -327 -11 -183 -39 -339 -195 -377 -377 -15 -73 -15 -1764 0
-1848 34 -189 199 -351 390 -384 44 -7 341 -10 954 -8 l890 3 60 24 c82 33
130 65 187 123 55 56 114 170 128 247 14 73 14 1759 0 1832 -25 135 -135 284
-253 342 -106 52 -147 57 -449 57 l-278 0 0 495 0 495 1315 0 1315 0 0 -495 0
-495 -272 0 c-295 0 -354 -8 -447 -54 -107 -55 -206 -172 -242 -287 -18 -58
-19 -106 -19 -974 0 -886 1 -915 20 -978 34 -110 136 -228 242 -283 106 -54
103 -54 1044 -54 551 0 891 4 925 10 167 32 319 168 371 333 19 60 20 92 20
972 0 879 -1 912 -20 972 -52 165 -204 301 -371 333 -30 5 -175 10 -322 10
l-269 0 0 495 0 495 1315 0 1315 0 0 -495 0 -495 -278 0 c-302 0 -343 -5 -449
-57 -118 -58 -228 -207 -253 -342 -14 -73 -14 -1759 0 -1832 35 -188 200 -353
389 -389 69 -13 1759 -14 1827 -1 175 33 313 149 376 316 l23 60 3 895 c2 641
0 912 -8 955 -36 188 -190 345 -378 384 -31 6 -165 11 -326 11 l-274 0 0 540
c0 384 -3 555 -12 592 -6 29 -30 91 -53 138 -54 112 -185 246 -294 303 -134
70 -60 67 -1565 67 l-1358 0 0 495 0 495 269 0 c147 0 292 5 322 10 167 32
319 168 371 333 19 60 20 93 20 972 0 895 -1 911 -21 977 -50 159 -205 297
-370 328 -34 6 -372 10 -930 9 -711 -1 -887 -3 -933 -15z m1727 -381 c50 -27
96 -75 126 -133 l24 -45 0 -730 c0 -678 -1 -733 -18 -768 -27 -57 -86 -118
-142 -143 l-50 -24 -725 0 -725 0 -50 24 c-56 25 -115 86 -142 143 -17 35 -18
90 -18 768 l0 730 24 45 c40 77 98 128 171 151 14 4 354 7 755 6 728 -2 730
-2 770 -24z m-3351 -5264 c66 -16 136 -75 170 -142 l30 -58 -1 -727 c0 -710 0
-728 -20 -773 -24 -55 -75 -108 -129 -135 -37 -18 -70 -19 -767 -22 -484 -1
-741 1 -767 8 -61 17 -121 69 -155 135 l-30 59 0 725 0 726 24 53 c29 65 98
127 160 146 38 12 172 15 744 15 468 1 712 -3 741 -10z m3312 -4 c67 -19 127
-73 161 -143 l28 -57 0 -725 0 -725 -23 -46 c-26 -54 -79 -111 -125 -136 -30
-17 -87 -18 -787 -18 -700 0 -757 1 -787 18 -46 25 -99 82 -125 136 l-23 46 0
725 0 725 28 57 c33 68 94 123 157 143 69 21 1424 22 1496 0z m3301 0 c66 -20
134 -80 164 -147 l24 -53 0 -726 0 -725 -30 -59 c-34 -66 -93 -118 -153 -135
-24 -6 -291 -10 -753 -10 -802 0 -771 -3 -849 72 -23 23 -52 62 -63 87 -20 45
-20 63 -20 771 0 705 0 726 20 770 36 81 96 134 183 161 14 4 340 8 726 8 594
1 708 -1 751 -14z"/>
</g>
</svg>
